<?xml version="1.0" encoding="UTF-8"?>
<svg version="1.1" xmlns="http://www.w3.org/2000/svg" width="630" height="630">
<path d="M0 0 C0.76224542 -0.00115384 1.52449084 -0.00230769 2.3098346 -0.0034965 C4.8546424 -0.00613564 7.39938646 -0.00166338 9.94419098 0.00279331 C11.79075653 0.00235706 13.63732203 0.00148115 15.4838872 0.00020415 C20.55092224 -0.00203015 25.61793612 0.00196593 30.68496847 0.00698221 C36.15181826 0.01130179 41.61866687 0.00983921 47.08551788 0.00907993 C56.55484551 0.00855566 66.02416624 0.01169243 75.49349213 0.01731777 C89.18453862 0.02544577 102.87558178 0.02804933 116.56663042 0.02930576 C138.77960325 0.03149423 160.99257274 0.03814019 183.20554352 0.04760838 C204.78301728 0.05679506 226.36049006 0.06387757 247.93796539 0.06811619 C248.93591048 0.06831348 248.93591048 0.06831348 249.95401608 0.06851475 C257.29826346 0.06996413 264.64251084 0.07135596 271.98675823 0.07272422 C327.34126472 0.08309046 382.69576722 0.10070322 438.05027008 0.12304783 C438.11899653 56.60036667 438.17182949 113.07768132 438.20346607 169.55503379 C438.20721801 176.22874687 438.2110975 182.90245987 438.215065 189.57617283 C438.21545728 190.24025749 438.21584956 190.90434215 438.21625372 191.58855059 C438.2290184 213.08057472 438.2515378 234.57257506 438.27916174 256.0645848 C438.3083227 278.79391541 438.32627101 301.52323123 438.33253556 324.25257993 C438.33664369 337.85684479 438.34960022 351.4610413 438.37401948 365.06528512 C438.38992618 374.40511333 438.3946593 383.74490641 438.39077421 393.08474717 C438.38886034 398.4663798 438.39171122 403.84789334 438.40788651 409.22950459 C438.42262644 414.17000945 438.42313235 419.1103166 438.41296677 424.05083111 C438.41171282 425.82506886 438.41539804 427.59931962 438.42491963 429.37353227 C438.50952284 446.13163858 436.59652302 462.50195872 431.86277008 478.62304783 C431.56016266 479.67073338 431.25755524 480.71841892 430.94577789 481.79785252 C422.20462713 511.26009353 407.79396775 537.6247075 387.39597321 560.6054697 C386.05552137 562.11712584 384.73268989 563.64303111 383.40964508 565.16992283 C351.34451845 601.67102968 302.25558886 625.67007345 254.05027008 630.12304783 C250.46531695 630.26533726 246.88393761 630.27089344 243.29647064 630.27021885 C242.23597254 630.27389554 241.17547444 630.27757223 240.08284003 630.28136033 C236.54064701 630.2923447 232.99848339 630.29623216 229.45627594 630.30004978 C226.91116494 630.30631866 224.36605484 630.31296583 221.82094574 630.3199625 C214.19043493 630.33915015 206.55992929 630.34978712 198.92940053 630.35869029 C196.04817217 630.3622032 193.1669449 630.36634964 190.28571744 630.37052995 C177.5582237 630.38899589 164.83072994 630.4047403 152.10322475 630.4124279 C148.99271837 630.41433741 145.88221199 630.4162578 142.77170563 630.41821384 C141.99872171 630.41869758 141.22573779 630.41918132 140.42933012 630.41967972 C127.93906843 630.42796001 115.44890313 630.45326423 102.95868342 630.48579452 C90.09764608 630.51901375 77.23665745 630.53689017 64.37557703 630.54007214 C57.16994753 630.54222405 49.96445839 630.55077631 42.75887108 630.57653332 C35.96670004 630.60075809 29.17478341 630.60397375 22.3825779 630.59377193 C19.90727271 630.59328083 17.43195439 630.59947339 14.95668793 630.61332798 C-37.18925276 630.88855773 -86.01234781 612.52865378 -124.57863617 577.27148533 C-126.68736359 575.36077679 -128.83753097 573.52004635 -131.01222992 571.68554783 C-162.54403585 543.985296 -182.77043859 500.90662213 -189.94972992 460.12304783 C-190.11616312 459.26170923 -190.28259632 458.40037064 -190.45407295 457.51293087 C-192.52725897 445.35285113 -192.24605554 433.16226341 -192.24025726 420.86377048 C-192.24625005 418.31939594 -192.25305732 415.7750232 -192.26061249 413.23065281 C-192.27638388 407.06292078 -192.28271777 400.89524497 -192.28383724 394.72749467 C-192.28479261 389.70419271 -192.28892711 384.68090319 -192.29523849 379.65760517 C-192.31282786 365.36345639 -192.32208142 351.06933747 -192.32057755 336.77517779 C-192.32049763 336.00680596 -192.32041772 335.23843413 -192.32033539 334.4467783 C-192.32025363 333.6774497 -192.32017187 332.9081211 -192.32008763 332.11547951 C-192.31927621 319.67153447 -192.33838343 307.22771088 -192.36661212 294.78380091 C-192.39547948 281.95533246 -192.40914473 269.12692295 -192.40742457 256.29842126 C-192.40676524 249.11689101 -192.41205377 241.93548797 -192.43378067 234.75398731 C-192.45411936 227.98879891 -192.45317884 221.22392087 -192.43874741 214.45870304 C-192.43667772 211.99510522 -192.44124824 209.53149002 -192.45346832 207.06792164 C-192.5468251 186.91967395 -190.69306118 167.14069749 -184.69972992 147.81054783 C-184.40235931 146.82675144 -184.10498871 145.84295506 -183.79860687 144.82934666 C-174.83951436 116.01811676 -159.97500791 90.5926925 -139.94972992 68.12304783 C-139.48147797 67.59308201 -139.01322601 67.06311619 -138.53078461 66.5170908 C-133.01496912 60.29252874 -127.40608189 54.38863438 -120.94972992 49.12304783 C-119.91954365 48.24572347 -118.88961939 47.3680914 -117.85988617 46.49023533 C-86.10477763 19.83370925 -42.03981009 -0.15901463 0 0 Z " fill="#41BF25" transform="translate(191.9497299194336,-0.1230478286743164)"/>
<path d="M0 0 C5.92227149 -0.56353794 8.748233 1.62975917 13.21074295 5.2510891 C17.68920082 9.14282612 21.8590064 13.32277742 26.03271484 17.53637695 C27.03364822 18.5395169 28.03503484 19.54220477 29.03683472 20.54447937 C31.17589216 22.68644797 33.3117815 24.83150684 35.44517136 26.97912025 C38.81888299 30.37525723 42.19981519 33.76414557 45.58169556 37.15214539 C50.92591733 42.50770323 56.26543589 47.86792161 61.60288298 53.23023051 C71.17560876 62.84745867 80.75408531 72.45895158 90.33771861 82.06531018 C93.69889976 85.43489481 97.05725243 88.8072662 100.41334987 92.18191397 C102.49660928 94.2758069 104.58189061 96.36767751 106.66768265 98.45904732 C108.09649921 99.89299442 109.52277227 101.3294745 110.94897461 102.76602173 C111.79833588 103.61689865 112.64769714 104.46777557 113.52279663 105.34443665 C114.62938912 106.45630828 114.62938912 106.45630828 115.75833702 107.59064198 C117.76476928 109.5758973 117.76476928 109.5758973 120.6953125 111.41015625 C120.6953125 112.07015625 120.6953125 112.73015625 120.6953125 113.41015625 C121.23204432 113.62198736 121.76877615 113.83381847 122.32177258 114.05206871 C125.5908475 115.92256176 128.04192913 118.4850126 130.67195129 121.13955688 C131.26662868 121.73181985 131.86130606 122.32408282 132.47400397 122.93429315 C134.46768121 124.92232982 136.45412316 126.9174416 138.44067383 128.91259766 C139.86788945 130.33874043 141.29553789 131.76445016 142.72358704 133.1897583 C146.60432572 137.06564391 150.47877522 140.94776129 154.35201478 144.83113909 C158.4080432 148.89594857 162.46934029 152.95548759 166.529953 157.01571655 C173.35354276 163.84024345 180.17324606 170.66863461 186.99047852 177.49951172 C194.86235836 185.38708927 202.73942418 193.26945646 210.61952382 201.14882147 C219.01502193 209.54364268 227.40670057 217.94227399 235.7972734 226.34201765 C238.21061156 228.75748283 240.62465568 231.17224055 243.03885841 233.58684158 C246.8423073 237.39129912 250.6431808 241.19831179 254.44212151 245.00727081 C255.83318756 246.40124467 257.22508564 247.79438883 258.61789703 249.1866188 C271.35873432 261.92415157 271.35873432 261.92415157 276.44732189 267.94165611 C278.10677084 269.89431584 279.91099943 271.69700615 281.6953125 273.53515625 C290.01458564 282.95503362 293.3701731 293.12533449 294.6953125 305.41015625 C295.05682194 307.22539513 295.43141395 309.03808747 295.8203125 310.84765625 C297.47724121 320.06179638 298.45311975 328.2248077 293.2518158 336.26325989 C290.58232982 339.94530138 287.43062354 343.08207235 284.19921875 346.26953125 C283.48805405 346.98119446 282.77688934 347.69285767 282.04417419 348.42608643 C280.54924215 349.9186921 279.0506507 351.40764085 277.54858398 352.89306641 C275.25911309 355.1588691 272.9833325 357.43777827 270.70898438 359.71875 C269.24818711 361.17397182 267.78662427 362.62842563 266.32421875 364.08203125 C265.64903702 364.75812439 264.97385529 365.43421753 264.2782135 366.13079834 C258.73839725 371.58863018 253.88754725 376.21052602 245.7578125 376.59765625 C241.11412173 376.53802619 236.69373522 375.874788 232.1328125 375.03125 C229.60969012 374.57536766 227.10728543 374.17597929 224.5703125 373.8203125 C209.94312428 371.68371996 200.1309635 366.58111866 189.5471077 356.18324947 C187.22228944 353.95723685 184.82976335 351.81187582 182.44158936 349.65394592 C174.86211415 342.74336804 167.62973917 335.49277639 160.37988281 328.23999023 C158.88079152 326.7438978 157.38149775 325.24800822 155.88201904 323.75230408 C151.84738914 319.72643324 147.81593644 315.69739582 143.7853632 311.66746402 C141.26584105 309.1486557 138.74560697 306.63056196 136.22512054 304.11271858 C127.43043922 295.32725583 118.6383111 286.53924742 109.84863281 277.7487793 C101.65278249 269.55232546 93.45133973 261.36149668 85.24732518 253.17321533 C78.19475321 246.13368769 71.14601007 239.09034194 64.10027766 232.04396874 C59.89527317 227.83870883 55.68871717 223.63502961 51.47830963 219.43517876 C47.53073246 215.49723302 43.58791818 211.55458184 39.64881134 207.60816383 C38.19925154 206.15755278 36.74796436 204.70866561 35.2948761 203.26158905 C33.32031205 201.29467018 31.35193159 199.32177006 29.3850708 197.34715271 C28.8018321 196.76905757 28.21859339 196.19096243 27.61768079 195.59534925 C23.6953125 191.63843009 23.6953125 191.63843009 23.6953125 189.41015625 C22.7053125 189.08015625 21.7153125 188.75015625 20.6953125 188.41015625 C20.6953125 187.75015625 20.6953125 187.09015625 20.6953125 186.41015625 C20.09976563 186.15363281 19.50421875 185.89710938 18.890625 185.6328125 C16.48291814 184.29186544 15.28925614 182.98553842 13.5703125 180.84765625 C9.95736599 176.54203154 5.90197922 172.94164164 1.63671875 169.29296875 C0.99605469 168.67164063 0.35539062 168.0503125 -0.3046875 167.41015625 C-0.3046875 166.75015625 -0.3046875 166.09015625 -0.3046875 165.41015625 C-0.9646875 165.41015625 -1.6246875 165.41015625 -2.3046875 165.41015625 C-3.50335693 164.18777466 -3.50335693 164.18777466 -4.99121094 162.34814453 C-10.35254126 156.05076088 -16.30122782 150.33693835 -22.17603302 144.52477646 C-24.35649679 142.36652812 -26.53280647 140.20417053 -28.70794678 138.04055786 C-34.88730287 131.8946264 -41.07089164 125.75300283 -47.26464844 119.62158203 C-51.06575445 115.8581491 -54.85948734 112.08741712 -58.64861298 108.31192398 C-60.08912446 106.87945136 -61.53240508 105.44975771 -62.97852325 104.0229454 C-64.99817522 102.02981257 -67.00831737 100.02752668 -69.01660156 98.02294922 C-69.61196716 97.43994049 -70.20733276 96.85693176 -70.82073975 96.2562561 C-75.5195135 91.53456906 -78.73196115 87.0004441 -78.7421875 80.09765625 C-78.13862139 60.73105688 -56.95870108 44.8557325 -44.33129883 32.1965332 C-42.00070625 29.85621057 -39.68102948 27.50540855 -37.36132812 25.15429688 C-15.04580364 2.67764302 -15.04580364 2.67764302 0 0 Z " fill="#DADADA" transform="translate(201.3046875,119.58984375)"/>
<path d="M0 0 C4.18760466 3.58937543 8.13975682 7.01293101 12.01733398 10.87207031 C12.93775986 11.78611633 13.85818573 12.70016235 14.8065033 13.64190674 C15.78656837 14.6204443 16.76642715 15.5991885 17.74609375 16.578125 C18.76734888 17.59616148 19.78867683 18.61412492 20.81007385 19.63201904 C22.93561763 21.75161317 25.05912351 23.87322495 27.18139648 25.99609375 C29.90568397 28.72048368 32.63683606 31.4378811 35.36971951 34.15364456 C37.47398657 36.24682952 39.57372989 38.34450663 41.67219734 40.44350433 C42.67815086 41.44827595 43.68573054 42.45142217 44.69494438 43.45291901 C46.09748508 44.84571874 47.49314031 46.24544192 48.88842773 47.64550781 C49.68449936 48.44015442 50.48057098 49.23480103 51.30076599 50.05352783 C53 52 53 52 53 54 C53.556875 54.20625 54.11375 54.4125 54.6875 54.625 C57.28792981 56.17120151 58.78963573 58.07091888 60.6484375 60.42578125 C62.15832004 62.27244105 62.15832004 62.27244105 65 64.5 C68 67 68 67 70.4375 69.9375 C72.41038999 72.29534413 74.10675645 74.01565883 76.4375 75.9375 C79.54307671 78.504148 82.03627573 81.30813457 84.59765625 84.40625 C86.50711033 86.57632595 88.71340657 88.24108198 91 90 C93.8125 92.625 93.8125 92.625 96 95 C96 95.66 96 96.32 96 97 C96.5775 97.2475 97.155 97.495 97.75 97.75 C100.32939979 99.18299988 102.06121592 100.78424676 104 103 C104 103.66 104 104.32 104 105 C104.82177734 105.33064453 104.82177734 105.33064453 105.66015625 105.66796875 C108.73548994 107.41870129 111.00158721 109.78947066 113.4375 112.3125 C113.90220703 112.78623047 114.36691406 113.25996094 114.84570312 113.74804688 C116.23322758 115.16266386 117.61663507 116.58131512 119 118 C120.66614266 119.6671905 122.33290225 121.33376453 124 123 C126.21888367 125.23108136 128.43482275 127.46508318 130.65112305 129.69873047 C137.25775224 136.35449695 143.87211317 143.00252558 150.49083233 149.64626884 C154.48707881 153.65816466 158.4804747 157.67281509 162.4675293 161.69384766 C166.33754662 165.59662058 170.21499043 169.49187477 174.09754372 173.38217545 C175.56844366 174.85858267 177.03671821 176.33761069 178.50220299 177.81939316 C193.60382497 193.08230058 206.28203379 202.78620809 228.1875 205.3125 C229.53470885 205.48079967 230.8817172 205.65071246 232.22851562 205.82226562 C235.48407244 206.23066881 238.74069994 206.62285653 242 207 C240.71839813 209.80923187 239.38303852 211.86871911 237.20605469 214.05273438 C236.64497009 214.62012329 236.0838855 215.18751221 235.50579834 215.77209473 C234.90060364 216.37324097 234.29540894 216.97438721 233.671875 217.59375 C233.04524963 218.22228882 232.41862427 218.85082764 231.77301025 219.49841309 C230.44732371 220.82545889 229.11911503 222.14998927 227.78857422 223.47216797 C225.76428344 225.48579183 223.75082683 227.50980132 221.73828125 229.53515625 C220.44595293 230.82616223 219.15300394 232.11654728 217.859375 233.40625 C217.26227722 234.00739624 216.66517944 234.60854248 216.04998779 235.22790527 C210.70425133 240.51489738 205.90571042 244.81401379 198.0625 245.1875 C193.41880923 245.12786994 188.99842272 244.46463175 184.4375 243.62109375 C181.91437762 243.16521141 179.41197293 242.76582304 176.875 242.41015625 C162.24781178 240.27356371 152.435651 235.17096241 141.8517952 224.77309322 C139.52697694 222.5470806 137.13445085 220.40171957 134.74627686 218.24378967 C127.16680165 211.33321179 119.93442667 204.08262014 112.68457031 196.82983398 C111.18547902 195.33374155 109.68618525 193.83785197 108.18670654 192.34214783 C104.15207664 188.31627699 100.12062394 184.28723957 96.0900507 180.25730777 C93.57052855 177.73849945 91.05029447 175.22040571 88.52980804 172.70256233 C79.73512672 163.91709958 70.9429986 155.12909117 62.15332031 146.33862305 C53.95746999 138.14216921 45.75602723 129.95134043 37.55201268 121.76305908 C30.49944071 114.72353144 23.45069757 107.68018569 16.40496516 100.63381249 C12.19996067 96.42855258 7.99340467 92.22487336 3.78299713 88.02502251 C-0.16458004 84.08707677 -4.10739432 80.14442559 -8.04650116 76.19800758 C-9.49606096 74.74739653 -10.94734814 73.29850936 -12.4004364 71.8514328 C-14.37500045 69.88451393 -16.34338091 67.91161381 -18.3102417 65.93699646 C-18.8934804 65.35890132 -19.47671911 64.78080618 -20.07763171 64.185193 C-24 60.22827384 -24 60.22827384 -24 58 C-25.485 57.505 -25.485 57.505 -27 57 C-27 56.34 -27 55.68 -27 55 C-27.87978516 54.62488281 -27.87978516 54.62488281 -28.77734375 54.2421875 C-31.29415569 52.83560368 -32.70866201 51.32306294 -34.5625 49.125 C-35.14128906 48.44695312 -35.72007812 47.76890625 -36.31640625 47.0703125 C-37.92886116 45.08747932 -39.4665758 43.0445656 -41 41 C-27.47 27.47 -13.94 13.94 0 0 Z " fill="#FDFEFD" transform="translate(249,251)"/>
<path d="M0 0 C0.20625 0.969375 0.4125 1.93875 0.625 2.9375 C3.00046919 11.17382449 9.11719881 17.55783316 15.10693359 23.41577148 C15.79055969 24.09662308 16.47418579 24.77747467 17.17852783 25.47895813 C19.41170287 27.69996926 21.65511019 29.91034192 23.8984375 32.12109375 C25.46008097 33.67204995 27.02091042 35.22382617 28.58096313 36.77638245 C32.66813576 40.84087418 36.7633943 44.89710576 40.86132812 48.95074463 C47.44267042 55.46161364 54.01621714 61.98027754 60.58089066 68.50795174 C62.87665926 70.78697437 65.17872388 73.05950059 67.48129272 75.33164978 C68.8775983 76.71750275 70.27365898 78.10360251 71.66943359 79.48999023 C72.31455902 80.12321198 72.95968445 80.75643372 73.62435913 81.40884399 C75.12130122 82.90169458 76.56665379 84.44598676 78 86 C78 86.66 78 87.32 78 88 C78.66 88 79.32 88 80 88 C81.2265625 89.28515625 81.2265625 89.28515625 82.625 91.0625 C84.92366863 93.85012748 87.30539532 96.22756069 90.0625 98.5625 C92.5129799 100.64028334 94.6818964 102.67734203 96.6875 105.1875 C98.84398761 108.01351684 98.84398761 108.01351684 101.375 109.875 C103.52987824 111.61942524 104.9973522 113.10803966 106.74452209 115.20518494 C112.70869253 122.08760452 119.27181628 128.41101614 125.71264648 134.84204102 C127.20827567 136.33902679 128.70369238 137.83622488 130.19891357 139.33361816 C134.24409488 143.38334309 138.2924147 147.42991671 142.34145617 151.47578168 C146.58729777 155.71908379 150.83069017 159.96483404 155.07447815 164.21018982 C162.2002796 171.33780833 169.32818175 178.46332096 176.45727539 185.58764648 C184.68830895 193.81323832 192.91573396 202.04242632 201.14129394 210.27349144 C208.21566531 217.35240713 215.29199153 224.42936424 222.36994225 231.50470108 C226.59204309 235.72524642 230.81347376 239.94645612 235.03314018 244.1694355 C239.00108886 248.14028206 242.97149355 252.10865671 246.94377136 256.07517242 C248.39742519 257.52750893 249.85023788 258.98068792 251.30212593 260.43478966 C260.59352568 269.81414978 260.59352568 269.81414978 270.40557957 278.63809109 C272.25194385 280.21520332 273.99369872 281.88616158 275.75 283.5625 C287.57087573 293.5855239 300.50995514 294.75275437 315.46313477 296.61450195 C318 297 318 297 321 298 C323.08258376 298.23317047 323.08258376 298.23317047 325.3125 298.25 C326.05113281 298.27578125 326.78976562 298.3015625 327.55078125 298.328125 C339.74902197 296.69391093 350.56582157 281.5110731 358.6628418 273.30078125 C359.46633057 272.48867188 360.26981934 271.6765625 361.09765625 270.83984375 C361.82476807 270.10113037 362.55187988 269.36241699 363.30102539 268.60131836 C365 267 365 267 366 267 C366.33 271.29 366.66 275.58 367 280 C367.99 279.67 368.98 279.34 370 279 C368.56668395 282.32582751 366.81119975 284.35005486 364.15625 286.79296875 C363.02896484 287.86321289 363.02896484 287.86321289 361.87890625 288.95507812 C360.30268047 290.43424567 358.71679282 291.90318932 357.12109375 293.36132812 C352.53912041 297.75074855 350.28086513 300.73410434 349.37011719 307.04711914 C348.83219536 309.8854019 347.50082702 311.23631703 345.375 313.125 C344.66085937 313.77726562 343.94671875 314.42953125 343.2109375 315.1015625 C342.48132813 315.72804688 341.75171875 316.35453125 341 317 C340.33226562 317.58523438 339.66453125 318.17046875 338.9765625 318.7734375 C337.65975211 319.92369479 336.33680602 321.06696583 335.0078125 322.203125 C332.19711913 324.71853152 329.62536176 327.44489081 327.0546875 330.203125 C323.75732708 333.08674818 320.64012668 334.87276873 316.23046875 335.21484375 C312.47670032 334.87271595 308.73818606 334.48043989 305 334 C303.56599854 333.82355957 303.56599854 333.82355957 302.10302734 333.64355469 C274.99964537 330.19426223 261.30725014 319.62179561 242.36083984 300.61962891 C240.80314701 299.06465001 239.24502988 297.51009606 237.68652344 295.95593262 C233.48009967 291.75858117 229.27997158 287.55498347 225.08126402 283.34991503 C220.68271633 278.9462878 216.27927304 274.54756026 211.87661743 270.14804077 C204.02238576 262.29767213 196.17319122 254.44228819 188.32598896 246.58489363 C181.20729504 239.45724065 174.08333865 232.33488269 166.95556641 225.21630859 C158.66665958 216.93809338 150.38110632 208.65654356 142.10050356 200.37002122 C137.72083976 195.98723448 133.33982398 191.60582217 128.95530319 187.22789383 C124.84184681 183.12019188 120.73326998 179.00767228 116.62849426 174.89129639 C115.11765616 173.37780286 113.60509333 171.86602888 112.09073257 170.35606003 C110.0328485 168.30359728 107.98115491 166.24514568 105.93099976 164.18496704 C105.01907681 163.27973626 105.01907681 163.27973626 104.08873117 162.35621798 C100 158.22830198 100 158.22830198 100 156 C99.34 156 98.68 156 98 156 C96.74351501 154.72103882 96.74351501 154.72103882 95.21069336 152.83740234 C90.2973644 147.0653927 84.89965552 141.80432656 79.51852608 136.47392654 C77.59548691 134.56844834 75.67615972 132.65930079 73.75779724 130.74911499 C68.30903822 125.32467955 62.85447215 119.90610981 57.39575195 114.49169922 C54.04429427 111.16694011 50.69765615 107.83739338 47.35398674 104.5048027 C46.08035717 103.23739304 44.80483186 101.97188553 43.52740669 100.70830154 C41.7514585 98.95145508 39.98165028 97.18864002 38.21313477 95.42431641 C37.68178925 94.90173248 37.15044373 94.37914856 36.60299683 93.84072876 C33 90.22789961 33 90.22789961 33 88 C32.01 87.67 31.02 87.34 30 87 C28.49603271 85.47108459 28.49603271 85.47108459 26.88183594 83.50415039 C22.80708118 78.70496072 18.38885422 74.33317563 13.890625 69.93359375 C12.14929985 68.21463805 10.40842772 66.49522334 8.66796875 64.77539062 C5.95133936 62.09593823 3.2318065 59.41969961 0.50439453 56.7512207 C-2.14686643 54.15447031 -4.78522993 51.54517237 -7.421875 48.93359375 C-8.23750916 48.14174179 -9.05314331 47.34988983 -9.89349365 46.53404236 C-14.75210277 41.6980589 -18.46446277 37.59975128 -19.28515625 30.55078125 C-18.53988614 23.05885543 -10.32314076 0 0 0 Z " fill="#2A881C" transform="translate(121,197)"/>
<path d="M0 0 C5.75422367 -0.54754724 8.54469121 1.41461996 12.88592529 4.93865967 C19.2646926 10.55023986 25.24456692 16.58464157 31.265625 22.57421875 C31.99780117 23.30074017 32.72997734 24.02726158 33.48434067 24.7757988 C37.34651318 28.60817032 41.20303998 32.44611409 45.0546875 36.2890625 C49.03500675 40.25833696 53.03359942 44.20866587 57.03660774 48.15503883 C60.1160165 51.19729764 63.18202151 54.25279491 66.24444199 57.31214523 C67.71395007 58.77559248 69.18846781 60.2340269 70.66800308 61.68733597 C72.72677694 63.71214944 74.76594754 65.75487502 76.80126953 67.80322266 C77.72520256 68.69951134 77.72520256 68.69951134 78.6678009 69.61390686 C80.33255005 71.31240845 80.33255005 71.31240845 82.6953125 74.41015625 C82.45276602 78.39756896 81.22432399 80.38296163 78.45097351 83.16915894 C77.7570047 83.8758522 77.06303589 84.58254547 76.34803772 85.31065369 C75.58180588 86.07035965 74.81557404 86.83006561 74.02612305 87.61279297 C72.82122223 88.83061714 72.82122223 88.83061714 71.59197998 90.07304382 C68.93213216 92.75560819 66.25778434 95.4231506 63.58203125 98.08984375 C61.73164708 99.94545992 59.88178504 101.80159687 58.03242493 103.65823364 C54.15503314 107.54747071 50.26894797 111.42786518 46.37817383 115.30371094 C41.87754038 119.78739916 37.39356854 124.28726398 32.91757172 128.79553592 C28.61186533 133.13111135 24.29234691 137.45265203 19.96698952 141.76861954 C18.12709298 143.6076934 16.29106439 145.4506451 14.45892906 147.29745102 C11.90196388 149.87174413 9.32969611 152.42968227 6.75268555 154.98388672 C5.9925264 155.75573807 5.23236725 156.52758942 4.44917297 157.3228302 C3.74674469 158.01260452 3.04431641 158.70237885 2.32060242 159.41305542 C1.71351787 160.01955366 1.10643332 160.6260519 0.48095226 161.25092888 C-1.3046875 162.41015625 -1.3046875 162.41015625 -3.33637428 162.26855946 C-5.50291935 161.32370514 -6.75278466 160.33929579 -8.42298889 158.67280579 C-9.01314285 158.0911113 -9.60329681 157.50941681 -10.21133423 156.91009521 C-11.16452042 155.94779999 -11.16452042 155.94779999 -12.13696289 154.96606445 C-13.15473564 153.95617714 -13.15473564 153.95617714 -14.19306946 152.92588806 C-16.43710788 150.69506777 -18.66997716 148.45343334 -20.90234375 146.2109375 C-22.45841832 144.6568836 -24.01493801 143.10327529 -25.57188416 141.5500946 C-28.83578806 138.29061692 -32.09419626 135.02576667 -35.34887695 131.75708008 C-39.51729752 127.57159622 -43.6990014 123.39968543 -47.88494205 119.23173237 C-51.10315302 116.02437523 -54.31416776 112.80989024 -57.52306938 109.59322166 C-59.06182172 108.05247028 -60.60279965 106.51393824 -62.14604378 104.97768593 C-64.30531697 102.82604992 -66.45470842 100.66499715 -68.60180664 98.5012207 C-69.23928833 97.86981171 -69.87677002 97.23840271 -70.53356934 96.58786011 C-75.32186248 91.73060037 -78.7316832 87.18805931 -78.7421875 80.09765625 C-78.13862139 60.73105688 -56.95870108 44.8557325 -44.33129883 32.1965332 C-42.00070625 29.85621057 -39.68102948 27.50540855 -37.36132812 25.15429688 C-15.04580364 2.67764302 -15.04580364 2.67764302 0 0 Z " fill="#FEFEFE" transform="translate(201.3046875,119.58984375)"/>
<path d="M0 0 C5.82753555 -0.55452328 8.64062046 1.50860728 13.03585815 5.07522583 C18.5444245 9.91160106 23.66620244 15.13962468 28.82421875 20.34375 C30.06644922 21.58971824 31.30912764 22.83524001 32.55223083 24.08033752 C35.79687701 27.33256005 39.03546754 30.59074648 42.27276611 33.85028076 C45.58766073 37.18576415 48.90834094 40.51547701 52.22851562 43.84570312 C58.72307201 50.36160336 65.21123546 56.88382892 71.6953125 63.41015625 C68.10507069 67.68517567 64.43552226 71.7917779 60.47265625 75.73046875 C60.00469131 76.19701874 59.53672638 76.66356873 59.05458069 77.14425659 C57.58302974 78.61029681 56.10802272 80.07279925 54.6328125 81.53515625 C53.64234264 82.5205967 52.65210669 83.50627231 51.66210938 84.4921875 C49.83859361 86.30761347 48.01350038 88.12139576 46.18725586 89.93408203 C40.99349432 95.0679899 40.99349432 95.0679899 35.94140625 100.33984375 C35.00527182 101.32167512 34.06907356 102.30344563 33.1328125 103.28515625 C32.66423828 103.795625 32.19566406 104.30609375 31.71289062 104.83203125 C30.31640625 106.27734375 30.31640625 106.27734375 27.6953125 108.41015625 C25.35546875 108.23046875 25.35546875 108.23046875 23.6953125 107.41015625 C23.6953125 106.75015625 23.6953125 106.09015625 23.6953125 105.41015625 C23.0353125 105.41015625 22.3753125 105.41015625 21.6953125 105.41015625 C20.29296875 103.94921875 20.29296875 103.94921875 18.7578125 102.03515625 C16.77544633 99.57114101 15.38831595 98.20549188 12.6953125 96.41015625 C12.6953125 95.75015625 12.6953125 95.09015625 12.6953125 94.41015625 C12.15165039 94.19101563 11.60798828 93.971875 11.04785156 93.74609375 C7.91864043 91.9691071 5.56845851 89.5691065 3.0546875 87.03515625 C2.52764221 86.51002441 2.00059692 85.98489258 1.45758057 85.44384766 C0.34914322 84.33676742 -0.75678796 83.22717295 -1.86035156 82.11523438 C-3.55575051 80.4090865 -5.2616036 78.71391578 -6.96875 77.01953125 C-8.04491308 75.94204733 -9.12045601 74.86394358 -10.1953125 73.78515625 C-10.70773499 73.27678223 -11.22015747 72.7684082 -11.74810791 72.24462891 C-15.3046875 68.64009716 -15.3046875 68.64009716 -15.3046875 66.41015625 C-16.2946875 66.08015625 -17.2846875 65.75015625 -18.3046875 65.41015625 C-19.83666992 63.84814453 -19.83666992 63.84814453 -21.47265625 61.85546875 C-24.00412366 58.86936231 -26.60338593 56.06124597 -29.41796875 53.33984375 C-30.4534082 52.33630859 -30.4534082 52.33630859 -31.50976562 51.3125 C-32.92877206 49.94741318 -34.353381 48.58812904 -35.78320312 47.234375 C-39.58412169 43.53018103 -42.18973893 40.79208847 -43.3046875 35.41015625 C-48.37092518 39.64832162 -53.10506819 44.08424588 -57.7421875 48.78515625 C-58.37833984 49.42582031 -59.01449219 50.06648438 -59.66992188 50.7265625 C-61.21719082 52.28546504 -62.76205242 53.84667041 -64.3046875 55.41015625 C-64.9646875 55.08015625 -65.6246875 54.75015625 -66.3046875 54.41015625 C-61.04500809 49.08033293 -55.77676365 43.75909935 -50.49807358 38.44810581 C-48.04605203 35.98056424 -45.59684192 33.51037254 -43.15429688 31.03344727 C-40.33283047 28.17252675 -37.49874364 25.32439056 -34.6640625 22.4765625 C-33.80729919 21.60431534 -32.95053589 20.73206818 -32.06781006 19.83338928 C-22.57266561 10.33568338 -13.49742516 2.40208414 0 0 Z " fill="#D6D7D6" transform="translate(201.3046875,119.58984375)"/>
<path d="M0 0 C0.87785156 -0.00515625 1.75570312 -0.0103125 2.66015625 -0.015625 C4.9375 0.25 4.9375 0.25 6.9375 2.25 C7.39700754 5.33864864 7.52249653 8.40583747 7.6953125 11.5234375 C7.85721117 14.01458802 8.10281219 16.50164944 8.4296875 18.9765625 C9.5374114 28.05212497 9.5374114 28.05212497 7.734375 31.65234375 C5.67334886 34.09856167 3.80024528 35.81862736 0.9375 37.25 C-6.4832737 37.20250705 -13.92146758 36.1131948 -21.25 35 C-22.36387085 34.85449707 -22.36387085 34.85449707 -23.50024414 34.70605469 C-26.8580312 34.15310819 -28.65461841 33.79384212 -30.73828125 31.015625 C-31.18176564 27.23264972 -29.95060877 25.52629638 -28.0625 22.25 C-25.93359375 19.76464844 -25.93359375 19.76464844 -23.5 17.359375 C-22.18128906 16.04839844 -22.18128906 16.04839844 -20.8359375 14.7109375 C-19.92070312 13.81632813 -19.00546875 12.92171875 -18.0625 12 C-16.68964844 10.63488281 -16.68964844 10.63488281 -15.2890625 9.2421875 C-5.90199402 -0.03476874 -5.90199402 -0.03476874 0 0 Z " fill="#207715" transform="translate(489.0625,508.75)"/>
<path d="M0 0 C2.24577907 2.24577907 2.3677281 2.96842225 2.8515625 6 C3.04576782 7.20052002 3.04576782 7.20052002 3.24389648 8.42529297 C3.36966064 9.27494629 3.4954248 10.12459961 3.625 11 C3.75398682 11.86125488 3.88297363 12.72250977 4.01586914 13.60986328 C6.21219281 28.92195519 6.21219281 28.92195519 3.25 34 C0.6732454 36.29044854 -1.42047899 37.93339369 -4.9453125 38.08203125 C-10.83871885 37.3532767 -16.70079661 36.44847141 -22.5625 35.5 C-23.37283691 35.36956299 -24.18317383 35.23912598 -25.01806641 35.10473633 C-30.87966925 34.12033075 -30.87966925 34.12033075 -32 33 C-32.5 30.4375 -32.5 30.4375 -32 27 C-27.5553142 20.80455826 -21.64118144 15.48795535 -16.25 10.125 C-15.11884766 8.98804688 -15.11884766 8.98804688 -13.96484375 7.828125 C-13.23910156 7.10367187 -12.51335937 6.37921875 -11.765625 5.6328125 C-11.11368164 4.98199707 -10.46173828 4.33118164 -9.79003906 3.66064453 C-6.49519831 0.60397421 -4.45702591 -0.45713086 0 0 Z " fill="#F9FCF9" transform="translate(502,472)"/>
<path d="M0 0 C0.66 0.33 1.32 0.66 2 1 C-1.16952847 4.26008643 -4.39937989 7.22237877 -8 10 C-6.34908222 5.70761377 -3.26245434 3.1206085 0 0 Z M-13 14 C-12.34 14.66 -11.68 15.32 -11 16 C-12.98 16.99 -12.98 16.99 -15 18 C-14.34 16.68 -13.68 15.36 -13 14 Z M-18 20 C-17.34 20.66 -16.68 21.32 -16 22 C-17.98 22.99 -17.98 22.99 -20 24 C-19.34 22.68 -18.68 21.36 -18 20 Z " fill="#9BF018" transform="translate(63,56)"/>
<path d="M0 0 C0 3.63 0 7.26 0 11 C-2.1385485 8.8614515 -2.42655063 7.86724686 -3 5 C-5.97 7.475 -5.97 7.475 -9 10 C-7.85488963 7.02271304 -3.65933899 0 0 0 Z " fill="#58A424" transform="translate(123,193)"/>
</svg>
