<?xml version="1.0" encoding="utf-8"?><!-- Uploaded to: SVG Repo, www.svgrepo.com, Generator: SVG Repo Mixer Tools -->
<svg version="1.1" id="Uploaded to svgrepo.com" xmlns="http://www.w3.org/2000/svg" xmlns:xlink="http://www.w3.org/1999/xlink" 
	 width="800px" height="800px" viewBox="0 0 32 32" xml:space="preserve">
<style type="text/css">
	.stone_een{fill:#0B1719;}
</style>
<path class="stone_een" d="M13,21.5c0,3.038-2.462,5.5-5.5,5.5S2,24.538,2,21.5S4.462,16,7.5,16S13,18.462,13,21.5z M24.5,16
	c-3.038,0-5.5,2.462-5.5,5.5s2.462,5.5,5.5,5.5s5.5-2.462,5.5-5.5S27.538,16,24.5,16z M32,21.5c0,4.142-3.358,7.5-7.5,7.5
	c-3.441,0-6.333-2.32-7.216-5.478C16.935,23.816,16.491,24,16,24s-0.935-0.184-1.284-0.478C13.833,26.68,10.941,29,7.5,29
	C3.358,29,0,25.642,0,21.5c0-1.195,0.287-2.321,0.784-3.323l3.515-8.453c0.468-1.372,1.464-2.496,2.743-3.139
	C7.246,5.126,8.485,4,10,4c1.657,0,3,1.343,3,3c0,0.082-0.017,0.159-0.024,0.239C14.211,8.248,15,9.781,15,11.5
	c0,0.225,0,0.491,0,0.777C15.295,12.106,15.634,12,16,12s0.705,0.106,1,0.277c0-0.286,0-0.552,0-0.777
	c0-1.742,0.812-3.292,2.076-4.3c-0.008-0.066-0.02-0.132-0.02-0.2c0-1.657,1.343-3,3-3c1.523,0,2.768,1.139,2.961,2.61
	c1.252,0.647,2.223,1.762,2.685,3.114l3.515,8.453C31.713,19.179,32,20.305,32,21.5z M14,21.5c0-3.59-2.91-6.5-6.5-6.5
	S1,17.91,1,21.5S3.91,28,7.5,28S14,25.09,14,21.5z M17,22c0-0.552-0.448-1-1-1s-1,0.448-1,1c0,0.552,0.448,1,1,1S17,22.552,17,22z
	 M31,21.5c0-3.59-2.91-6.5-6.5-6.5S18,17.91,18,21.5s2.91,6.5,6.5,6.5S31,25.09,31,21.5z"/>
</svg>